<?xml version="1.0" encoding="utf-8"?>
<!-- Generator: Adobe Illustrator 22.0.0, SVG Export Plug-In . SVG Version: 6.00 Build 0)  -->
<svg version="1.1" xmlns="http://www.w3.org/2000/svg" xmlns:xlink="http://www.w3.org/1999/xlink" x="0px" y="0px"
	 viewBox="0 0 1024 640" style="enable-background:new 0 0 1024 640;" xml:space="preserve">
<style type="text/css">
	.st0{fill:#FDDB11;stroke:#000000;stroke-width:4;stroke-linejoin:bevel;stroke-miterlimit:10;}
	.st1{fill:#DADADA;stroke:#000000;stroke-width:4;stroke-linejoin:bevel;stroke-miterlimit:10;}
	.st2{fill:#575756;stroke:#000000;stroke-width:4;stroke-linejoin:bevel;stroke-miterlimit:10;}
	.st3{clip-path:url(#SVGID_6_);}
	.st4{clip-path:url(#SVGID_7_);fill:#FCEB2F;}
	.st5{fill:#FDDB11;}
	.st6{fill:#3F3F3F;}
	.st7{fill:#9C9C9A;stroke:#9C9C9A;stroke-width:2;stroke-miterlimit:10;}
	.st8{fill:none;stroke:#020203;stroke-width:2;stroke-linecap:round;stroke-linejoin:round;stroke-miterlimit:10;}
	.st9{fill:none;stroke:#FCEB2F;stroke-width:1.8;stroke-miterlimit:10;}
	.st10{fill:#020203;}
	.st11{fill:none;stroke:#020203;stroke-width:2;stroke-miterlimit:10;}
	.st12{fill:#D70A54;}
	.st13{fill:#52ACE1;}
	.st14{fill:#384446;}
	.st15{fill:#224295;}
	.st16{fill:#FDDB11;stroke:#000000;stroke-width:4;stroke-miterlimit:10;}
	.st17{fill:#D70A54;stroke:#000000;stroke-width:4;stroke-miterlimit:10;}
	.st18{fill:#52ACE1;stroke:#000000;stroke-width:4;stroke-miterlimit:10;}
	.st19{fill:none;stroke:#000000;stroke-width:4;stroke-miterlimit:10;}
	.st20{fill:#FFFFFF;}
	.st21{font-family:'PT Mono', 'monospace';}
	.st22{font-size:25px;}
	.st23{font-size:40px;}
</style>
<g id="box">
</g>
<g id="Layer_1">
</g>
<g id="Layer_3">
	<rect x="74" y="241.5" class="st16" width="155.8" height="110.9"/>
	<rect x="328.1" y="241.5" class="st17" width="155.9" height="110.9"/>
	<rect x="556" y="241.5" class="st17" width="110.9" height="110.9"/>
	<rect x="758" y="241.5" class="st18" width="195" height="110.9"/>
	<rect x="485" y="241.5" class="st19" width="70" height="110.9"/>
	<rect x="230.8" y="241.5" class="st19" width="96" height="110.9"/>
	<g>
		<g>
			<path d="M79.2,219.3c46.6-30.5,101.9-42.2,156.2-49.9c61.6-8.8,123.8-14.2,186-17.1c62.3-2.8,124.7-2.9,187-0.5
				c58.6,2.2,117.6,5.6,175.8,13.2c58.5,7.6,118.4,22.3,165.6,59.3c2.5,2,6.1-1.6,3.5-3.5c-41.5-32.5-92.5-48.4-143.9-57
				c-57.8-9.7-117-13-175.5-15.8c-126.5-6.1-253.6-2.5-379.2,13.8c-61.5,8-125.2,18.6-178.1,53.2C74,216.7,76.5,221,79.2,219.3
				L79.2,219.3z"/>
		</g>
	</g>
	<rect x="660.8" y="243.2" class="st20" width="107.2" height="107.2"/>
	<g>
		<path d="M371.7,121.1h7.2v9.5c-0.7,0.6-1.6,1.1-2.7,1.4c-1.1,0.3-2.2,0.5-3.3,0.5c-1.3,0-2.6-0.2-3.8-0.7s-2.2-1.2-3-2.1
			s-1.5-2.1-2-3.5c-0.5-1.4-0.8-3-0.8-4.8c0-1.9,0.3-3.6,0.9-4.9c0.6-1.4,1.4-2.5,2.3-3.3c0.9-0.9,2-1.5,3.2-1.9s2.4-0.6,3.5-0.6
			c1.2,0,2.2,0.1,3,0.3c0.8,0.2,1.5,0.4,2.2,0.7v6.2h-3.3v-3.3c-0.2,0-0.3-0.1-0.5-0.1c-0.4-0.1-0.8-0.1-1.3-0.1
			c-0.8,0-1.6,0.1-2.3,0.4c-0.7,0.3-1.3,0.7-1.8,1.3c-0.5,0.6-0.9,1.3-1.2,2.3c-0.3,0.9-0.4,2-0.4,3.3c0,1.1,0.1,2.2,0.4,3.1
			c0.3,0.9,0.7,1.7,1.2,2.3c0.5,0.6,1.1,1.1,1.8,1.4c0.7,0.3,1.4,0.5,2.2,0.5c0.5,0,1-0.1,1.4-0.2c0.4-0.1,0.7-0.2,0.9-0.4v-4.2
			h-3.8V121.1z"/>
		<path d="M384.2,111.3c0.5-0.1,1-0.2,1.5-0.2c0.5-0.1,1.1-0.1,1.6-0.2c0.5,0,1-0.1,1.5-0.1c0.5,0,1,0,1.4,0c1,0,1.9,0.1,2.9,0.3
			c1,0.2,1.8,0.5,2.5,1c0.8,0.5,1.4,1.1,1.8,1.9c0.4,0.8,0.7,1.8,0.7,2.9c0,0.9-0.1,1.6-0.3,2.2c-0.2,0.6-0.4,1.2-0.7,1.7
			c-0.3,0.5-0.7,0.9-1.1,1.2c-0.4,0.4-0.9,0.7-1.4,0.9l5.1,9.2H395l-4.2-8.2h-2.5v8.2h-4.1V111.3z M390.5,114.4c-0.4,0-0.8,0-1.2,0
			c-0.4,0-0.7,0.1-0.9,0.1v6.1h1.6c1.1,0,2.1-0.3,2.8-0.8c0.7-0.5,1.1-1.4,1.1-2.6c0-0.9-0.3-1.6-0.8-2.1
			C392.4,114.7,391.5,114.4,390.5,114.4z"/>
		<path d="M403.6,121.6c0-1.7,0.2-3.2,0.5-4.6c0.3-1.4,0.8-2.5,1.5-3.4c0.7-0.9,1.5-1.6,2.5-2.1s2.2-0.8,3.5-0.8
			c1.4,0,2.7,0.3,3.7,0.8s1.8,1.3,2.4,2.2c0.6,1,1.1,2.1,1.4,3.4c0.3,1.3,0.4,2.8,0.4,4.4c0,3.4-0.7,6.1-2,8c-1.3,1.9-3.3,2.9-6,2.9
			c-1.4,0-2.7-0.3-3.7-0.8c-1-0.5-1.8-1.3-2.5-2.2s-1.1-2.1-1.4-3.4S403.6,123.2,403.6,121.6z M407.9,121.6c0,1,0,2,0.1,2.9
			c0.1,0.9,0.3,1.6,0.5,2.3s0.6,1.2,1.1,1.5c0.5,0.4,1.1,0.6,1.9,0.6c0.7,0,1.3-0.1,1.7-0.4c0.5-0.3,0.8-0.7,1.1-1.3
			c0.3-0.6,0.5-1.4,0.6-2.3c0.1-0.9,0.2-2,0.2-3.2c0-1,0-1.9-0.1-2.8c-0.1-0.9-0.2-1.6-0.5-2.3c-0.2-0.7-0.6-1.2-1.1-1.6
			c-0.5-0.4-1.1-0.6-1.9-0.6c-1.4,0-2.4,0.6-2.8,1.8C408.2,117.4,407.9,119.2,407.9,121.6z"/>
		<path d="M435.4,111.1h3.9v13.4c0,1.4-0.2,2.5-0.5,3.5c-0.4,1-0.9,1.8-1.5,2.5c-0.7,0.7-1.4,1.1-2.3,1.5c-0.9,0.3-1.9,0.5-3,0.5
			c-2.6,0-4.5-0.6-5.8-1.9c-1.2-1.3-1.9-3.1-1.9-5.5v-14h4.1v13.1c0,1.6,0.3,2.8,0.9,3.5c0.6,0.7,1.5,1.1,2.7,1.1
			c1.2,0,2.1-0.4,2.6-1.2c0.5-0.8,0.8-1.9,0.8-3.4V111.1z"/>
		<path d="M445.2,111.3c0.8-0.2,1.8-0.3,2.8-0.4s2-0.1,3-0.1c1,0,2.1,0.1,3.1,0.3s2,0.5,2.8,1c0.8,0.5,1.5,1.2,2.1,2.1
			c0.5,0.9,0.8,2.1,0.8,3.6c0,1.3-0.2,2.4-0.7,3.3c-0.5,0.9-1.1,1.7-1.8,2.2c-0.8,0.6-1.6,1-2.6,1.3c-1,0.3-2,0.4-3,0.4
			c-0.1,0-0.3,0-0.5,0c-0.2,0-0.5,0-0.7,0c-0.2,0-0.5,0-0.7,0c-0.2,0-0.4,0-0.5-0.1v7.2h-4.1V111.3z M451.4,114.3
			c-0.4,0-0.8,0-1.1,0c-0.4,0-0.7,0.1-0.9,0.1v6.8c0.1,0,0.2,0,0.4,0.1c0.2,0,0.3,0,0.5,0s0.4,0,0.5,0c0.2,0,0.3,0,0.4,0
			c0.5,0,1.1,0,1.6-0.1c0.5-0.1,1-0.3,1.4-0.6c0.4-0.3,0.8-0.6,1-1.1c0.2-0.5,0.4-1.1,0.4-1.9c0-0.7-0.1-1.2-0.4-1.6
			c-0.2-0.4-0.6-0.8-0.9-1c-0.4-0.3-0.8-0.4-1.3-0.5S451.9,114.3,451.4,114.3z"/>
		<path d="M485,111.1c0.2,0,0.5,0,0.9-0.1c0.4,0,1-0.1,1.5-0.1c0.6,0,1.2-0.1,1.8-0.1c0.6,0,1.2,0,1.6,0c1.9,0,3.4,0.3,4.6,0.8
			c1.2,0.5,2.2,1.3,2.9,2.2c0.7,1,1.2,2.1,1.5,3.4s0.4,2.7,0.4,4.2c0,1.4-0.1,2.7-0.4,4.1c-0.3,1.3-0.8,2.5-1.5,3.5
			c-0.7,1-1.7,1.9-3,2.5c-1.3,0.6-2.9,0.9-5,0.9c-0.3,0-0.7,0-1.2,0s-1,0-1.5-0.1c-0.5,0-1-0.1-1.5-0.1c-0.5,0-0.9-0.1-1.1-0.1
			V111.1z M491.1,114.4c-0.4,0-0.8,0-1.1,0c-0.4,0-0.6,0.1-0.8,0.1v14.1c0.1,0,0.2,0,0.4,0s0.3,0,0.5,0c0.2,0,0.3,0,0.5,0
			c0.2,0,0.3,0,0.4,0c1.2,0,2.1-0.2,2.8-0.6c0.7-0.4,1.2-1,1.5-1.7c0.3-0.7,0.6-1.5,0.7-2.4c0.1-0.9,0.2-1.8,0.2-2.6
			c0-0.8,0-1.5-0.1-2.4c-0.1-0.8-0.3-1.6-0.6-2.2c-0.3-0.7-0.8-1.2-1.5-1.7C493.1,114.6,492.2,114.4,491.1,114.4z"/>
		<path d="M516.4,111.1h3.9v13.4c0,1.4-0.2,2.5-0.5,3.5c-0.4,1-0.9,1.8-1.5,2.5c-0.7,0.7-1.4,1.1-2.3,1.5c-0.9,0.3-1.9,0.5-3,0.5
			c-2.6,0-4.5-0.6-5.8-1.9c-1.2-1.3-1.9-3.1-1.9-5.5v-14h4.1v13.1c0,1.6,0.3,2.8,0.9,3.5c0.6,0.7,1.5,1.1,2.7,1.1
			c1.2,0,2.1-0.4,2.6-1.2c0.5-0.8,0.8-1.9,0.8-3.4V111.1z"/>
		<path d="M525.9,111.3c0.5-0.1,1-0.2,1.5-0.2c0.5-0.1,1.1-0.1,1.6-0.2c0.5,0,1-0.1,1.5-0.1c0.5,0,1,0,1.4,0c1,0,1.9,0.1,2.9,0.3
			c1,0.2,1.8,0.5,2.5,1c0.8,0.5,1.4,1.1,1.8,1.9c0.4,0.8,0.7,1.8,0.7,2.9c0,0.9-0.1,1.6-0.3,2.2c-0.2,0.6-0.4,1.2-0.7,1.7
			c-0.3,0.5-0.7,0.9-1.1,1.2c-0.4,0.4-0.9,0.7-1.4,0.9l5.1,9.2h-4.7l-4.2-8.2H530v8.2h-4.1V111.3z M532.2,114.4c-0.4,0-0.8,0-1.2,0
			c-0.4,0-0.7,0.1-0.9,0.1v6.1h1.6c1.1,0,2.1-0.3,2.8-0.8c0.7-0.5,1.1-1.4,1.1-2.6c0-0.9-0.3-1.6-0.8-2.1
			C534.1,114.7,533.3,114.4,532.2,114.4z"/>
		<path d="M556.3,127.4H550l-1.4,4.6h-4.1l6.8-21h4.1l6.8,21h-4.3L556.3,127.4z M551,124.1h4.5l-2.1-7h-0.3L551,124.1z"/>
		<path d="M568.1,128.8h3.4v-14.4h-2.9v3.6h-3.3v-6.9h16.4v6.9h-3.3v-3.6h-2.8v14.4h3.4v3.3h-10.9V128.8z"/>
		<path d="M586.4,128.4h5.3v-13.7h-5.3v-3.7h14.8v3.7h-5.3v13.7h5.3v3.7h-14.8V128.4z"/>
		<path d="M606.1,121.6c0-1.7,0.2-3.2,0.5-4.6c0.3-1.4,0.8-2.5,1.5-3.4c0.7-0.9,1.5-1.6,2.5-2.1s2.2-0.8,3.5-0.8
			c1.4,0,2.7,0.3,3.7,0.8s1.8,1.3,2.4,2.2c0.6,1,1.1,2.1,1.4,3.4c0.3,1.3,0.4,2.8,0.4,4.4c0,3.4-0.7,6.1-2,8c-1.3,1.9-3.3,2.9-6,2.9
			c-1.4,0-2.7-0.3-3.7-0.8c-1-0.5-1.8-1.3-2.5-2.2s-1.1-2.1-1.4-3.4S606.1,123.2,606.1,121.6z M610.4,121.6c0,1,0,2,0.1,2.9
			c0.1,0.9,0.3,1.6,0.5,2.3s0.6,1.2,1.1,1.5c0.5,0.4,1.1,0.6,1.9,0.6c0.7,0,1.3-0.1,1.7-0.4c0.5-0.3,0.8-0.7,1.1-1.3
			c0.3-0.6,0.5-1.4,0.6-2.3c0.1-0.9,0.2-2,0.2-3.2c0-1,0-1.9-0.1-2.8c-0.1-0.9-0.2-1.6-0.5-2.3c-0.2-0.7-0.6-1.2-1.1-1.6
			c-0.5-0.4-1.1-0.6-1.9-0.6c-1.4,0-2.4,0.6-2.8,1.8C610.7,117.4,610.4,119.2,610.4,121.6z"/>
		<path d="M630.8,119.6h-0.1l0.2,2.5v9.9H627v-21h3.6l7.3,12.8h0.2l-0.3-2.5v-10.3h3.9v21H638L630.8,119.6z"/>
	</g>
	<text transform="matrix(1 0 0 1 90.3196 395.7531)"><tspan x="0" y="0" class="st21 st22">sendTask</tspan><tspan x="7.5" y="30" class="st21 st22">request</tspan></text>
	<text transform="matrix(1 0 0 1 324.5543 395.7526)"><tspan x="0" y="0" class="st21 st22">checkStatus</tspan><tspan x="30" y="30" class="st21 st22">request</tspan></text>
	<text transform="matrix(1 0 0 1 528.9755 395.7528)"><tspan x="0" y="0" class="st21 st22">checkStatus</tspan><tspan x="30" y="30" class="st21 st22">request</tspan></text>
	<text transform="matrix(1 0 0 1 765.6519 395.7533)"><tspan x="0" y="0" class="st21 st22">getTaskResult</tspan><tspan x="45" y="30" class="st21 st22">request</tspan></text>
	<text transform="matrix(6.123234e-17 -1 1 6.123234e-17 689.6047 320.8203)"><tspan x="0" y="0" class="st21 st22">...</tspan><tspan x="0" y="60" class="st21 st22">...</tspan></text>
	<text transform="matrix(6.123234e-17 -1 1 6.123234e-17 529.2312 335.8184)" class="st21 st22">pause</text>
	<text transform="matrix(6.123234e-17 -1 1 6.123234e-17 289.7449 335.8184)" class="st21 st22">pause</text>
	<g>
		<g>
			<g>
				<path d="M140.6,278.9c-14,0.2-19.1,15.7-13.7,26.9c5.2,10.8,17.5,16.7,29.3,15.4c11.6-1.3,20.5-9.9,22.5-21.4
					c1.9-10.7-2.5-22.3-12.7-27c-11.2-5.2-25.4-1.6-32,8.9c-1.7,2.7,2.6,5.3,4.3,2.5c5.5-8.9,18.4-11.5,27.2-6
					c9.5,5.9,10.8,19.3,5.4,28.4c-6,10-19.2,12.1-29.2,7.2c-5.3-2.6-9.8-7.3-11.5-13.1c-2.2-7.6,1.5-16.7,10.3-16.9
					C143.8,283.8,143.8,278.8,140.6,278.9L140.6,278.9z"/>
			</g>
		</g>
		<g>
			<g>
				<path d="M145.3,299.6c3.9-3.8,7.8-7.6,11.7-11.4c-1.4-0.6-2.8-1.2-4.3-1.8c-0.8,6.5-1,12.9-0.6,19.4c0.2,3.2,5.2,3.2,5,0
					c-0.4-6.5-0.2-12.9,0.6-19.4c0.3-2.3-2.9-3.1-4.3-1.8c-3.9,3.8-7.8,7.6-11.7,11.4C139.5,298.3,143,301.8,145.3,299.6
					L145.3,299.6z"/>
			</g>
		</g>
	</g>
	<g>
		<g>
			<g>
				<path d="M394.3,278.9c-14,0.2-19.1,15.7-13.7,26.9c5.2,10.8,17.5,16.7,29.3,15.4c11.6-1.3,20.5-9.9,22.5-21.4
					c1.9-10.7-2.5-22.3-12.7-27c-11.2-5.2-25.4-1.6-32,8.9c-1.7,2.7,2.6,5.3,4.3,2.5c5.5-8.9,18.4-11.5,27.2-6
					c9.5,5.9,10.8,19.3,5.4,28.4c-6,10-19.2,12.1-29.2,7.2c-5.3-2.6-9.8-7.3-11.5-13.1c-2.2-7.6,1.5-16.7,10.3-16.9
					C397.5,283.8,397.5,278.8,394.3,278.9L394.3,278.9z"/>
			</g>
		</g>
		<g>
			<g>
				<path d="M401.8,290.5c1.3-4.2,7.8-3.2,6.9,1.4c-0.3,1.7-2,3.1-3.3,4.1c-2.2,1.8-5.5,3.4-6.7,6.1c-1,2.2-0.2,4.6,1.9,5.7
					c1.1,0.6,2.6,0.8,3.9,0.7c2-0.2,3.9-1.9,6-1.1c3,1.1,4.3-3.7,1.3-4.8c-2.9-1.1-4.3,0.4-7.1,0.8c-2.9,0.4,1.6-1.8,2.6-2.6
					c3.2-2.4,6.5-5.4,6.4-9.8c-0.1-10.1-13.9-10.9-16.8-1.9C396,292.2,400.8,293.6,401.8,290.5L401.8,290.5z"/>
			</g>
		</g>
	</g>
	<g>
		<g>
			<g>
				<path d="M597.3,278.9c-14,0.2-19.1,15.7-13.7,26.9c5.2,10.8,17.5,16.7,29.3,15.4c11.6-1.3,20.5-9.9,22.5-21.4
					c1.9-10.7-2.5-22.3-12.7-27c-11.2-5.2-25.4-1.6-32,8.9c-1.7,2.7,2.6,5.3,4.3,2.5c5.5-8.9,18.4-11.5,27.2-6
					c9.5,5.9,10.8,19.3,5.4,28.4c-6,10-19.2,12.1-29.2,7.2c-5.3-2.6-9.8-7.3-11.5-13.1c-2.2-7.6,1.5-16.7,10.3-16.9
					C600.5,283.8,600.5,278.8,597.3,278.9L597.3,278.9z"/>
			</g>
		</g>
		<g>
			<g>
				<path d="M605.8,287.7c0.6-0.4,2-1.6,2.7-1.5c1.8,0.3,0.1,1.9-0.3,2.3c-0.9,1.1-2,1.9-2.7,3.2c-1,1.6,0.3,3.8,2.2,3.8
					c2.4,0,6.1,0.2,7.2,2.8c1.2,2.9-1.2,4.4-3.6,4.7c-3.1,0.4-6.5-0.2-9.6-0.4c-3.2-0.2-3.2,4.8,0,5c5.8,0.4,16.1,2.3,18.4-5.2
					c2.4-7.8-6-11.9-12.4-11.8c0.7,1.3,1.4,2.5,2.2,3.8c2-3.3,7.6-5.5,4.8-10.3c-2.5-4.4-7.9-2.8-11.3-0.6
					C600.6,285.1,603.1,289.4,605.8,287.7L605.8,287.7z"/>
			</g>
		</g>
	</g>
	<g>
		<g>
			<g>
				<path d="M846.3,278.9c-14,0.2-19.1,15.7-13.7,26.9c5.2,10.8,17.5,16.7,29.3,15.4c11.6-1.3,20.5-9.9,22.5-21.4
					c1.9-10.7-2.5-22.3-12.7-27c-11.2-5.2-25.4-1.6-32,8.9c-1.7,2.7,2.6,5.3,4.3,2.5c5.5-8.9,18.4-11.5,27.2-6
					c9.5,5.9,10.8,19.3,5.4,28.4c-6,10-19.2,12.1-29.2,7.2c-5.3-2.6-9.8-7.3-11.5-13.1c-2.2-7.6,1.5-16.7,10.3-16.9
					C849.5,283.8,849.5,278.8,846.3,278.9L846.3,278.9z"/>
			</g>
		</g>
		<g>
			<g>
				<path d="M849.4,289c-0.5,6.2-0.3,12.3,0.6,18.5c0.5,3.2,5.3,1.8,4.8-1.3c-0.8-5.7-0.9-11.4-0.5-17.2
					C854.7,285.8,849.7,285.8,849.4,289L849.4,289z"/>
			</g>
		</g>
		<g>
			<g>
				<path d="M854.5,302.2c1.6-2.2,3.1-4.5,4.7-6.7c0.7-1,3.2-5.9,4.6-5.7c0.8,0.1,1.7,5.9,1.9,6.6c0.7,3,1.1,6.1,1.5,9.2
					c0.3,3.2,5.3,3.2,5,0c-0.5-4.5-1.2-8.9-2.3-13.3c-0.7-2.8-1.5-6.4-4.4-7.7c-2.6-1.2-4.8,0.4-6.4,2.4c-3.2,4-6,8.5-8.9,12.6
					C848.4,302.3,852.7,304.8,854.5,302.2L854.5,302.2z"/>
			</g>
		</g>
	</g>
	<text transform="matrix(1 0 0 1 169.0606 575)" class="st21 st23">useGroupDurationMetric = true</text>
</g>
</svg>
