<?xml version="1.0" encoding="utf-8"?>
<!-- Generator: Adobe Illustrator 22.0.0, SVG Export Plug-In . SVG Version: 6.00 Build 0)  -->
<svg version="1.1" xmlns="http://www.w3.org/2000/svg" xmlns:xlink="http://www.w3.org/1999/xlink" x="0px" y="0px"
	 viewBox="0 0 1024 640" style="enable-background:new 0 0 1024 640;" xml:space="preserve">
<style type="text/css">
	.st0{fill:#FDDB11;stroke:#000000;stroke-width:4;stroke-linejoin:bevel;stroke-miterlimit:10;}
	.st1{fill:#DADADA;stroke:#000000;stroke-width:4;stroke-linejoin:bevel;stroke-miterlimit:10;}
	.st2{fill:#575756;stroke:#000000;stroke-width:4;stroke-linejoin:bevel;stroke-miterlimit:10;}
	.st3{font-family:'PT Mono', 'monospace';}
	.st4{font-size:36.9688px;}
	.st5{letter-spacing:2;}
	.st6{font-size:50.7425px;}
	.st7{clip-path:url(#SVGID_6_);}
	.st8{clip-path:url(#SVGID_7_);fill:#FCEB2F;}
	.st9{fill:#FDDB11;}
	.st10{fill:#3F3F3F;}
	.st11{fill:#9C9C9A;stroke:#9C9C9A;stroke-width:2;stroke-miterlimit:10;}
	.st12{fill:none;stroke:#020203;stroke-width:2;stroke-linecap:round;stroke-linejoin:round;stroke-miterlimit:10;}
	.st13{fill:none;stroke:#FCEB2F;stroke-width:1.8;stroke-miterlimit:10;}
	.st14{fill:#020203;}
	.st15{fill:none;stroke:#020203;stroke-width:2;stroke-miterlimit:10;}
	.st16{fill:#D70A54;}
	.st17{fill:#52ACE1;}
	.st18{fill:#384446;}
	.st19{fill:#224295;}
	.st20{fill:#FDDB11;stroke:#000000;stroke-width:4;stroke-miterlimit:10;}
	.st21{fill:#D70A54;stroke:#000000;stroke-width:4;stroke-miterlimit:10;}
	.st22{fill:#52ACE1;stroke:#000000;stroke-width:4;stroke-miterlimit:10;}
	.st23{fill:none;stroke:#000000;stroke-width:4;stroke-miterlimit:10;}
	.st24{fill:#FFFFFF;}
</style>
<g id="box">
	<g>
		<rect x="666.5" y="239.9" class="st0" width="292.6" height="89.2"/>
		<rect x="681.7" y="329" class="st1" width="262.1" height="129.4"/>
		<polygon class="st2" points="896,192 742.6,192 666.5,239.9 959.1,239.9 		"/>
	</g>
</g>
<g id="Layer_1">
	<g>
		<path d="M265.9,88.5c0.9,0,1.8,0.1,2.8,0.2c1,0.1,2,0.3,3,0.5c1,0.2,2,0.5,3,0.9c1,0.4,1.8,0.9,2.5,1.6c0.7,0.7,1.2,1.5,1.5,2.5
			c0.3,1,0.3,2.2,0,3.6c-0.3,1.2-0.7,2.3-1.4,3.1c-0.6,0.8-1.4,1.4-2.3,1.8c-0.9,0.4-1.8,0.6-2.8,0.7c-1,0.1-2,0-3-0.3
			c-0.1,0-0.3-0.1-0.5-0.1c-0.2,0-0.4-0.1-0.7-0.2c-0.2-0.1-0.5-0.1-0.7-0.2c-0.2-0.1-0.4-0.1-0.5-0.2l-1.6,7.1l-4-0.9L265.9,88.5z
			 M271.2,92.8c-0.4-0.1-0.8-0.2-1.1-0.2c-0.4,0-0.6-0.1-0.9-0.1l-1.5,6.6c0.1,0,0.2,0.1,0.3,0.1c0.2,0.1,0.3,0.1,0.5,0.2
			c0.2,0,0.3,0.1,0.5,0.1c0.2,0,0.3,0.1,0.4,0.1c0.5,0.1,1.1,0.2,1.6,0.2c0.5,0,1-0.1,1.5-0.2c0.5-0.2,0.9-0.5,1.2-0.9
			c0.3-0.4,0.6-1,0.8-1.8c0.1-0.6,0.1-1.2,0-1.7c-0.1-0.5-0.4-0.9-0.7-1.2c-0.3-0.3-0.7-0.6-1.2-0.8C272.2,93,271.7,92.9,271.2,92.8
			z"/>
		<path d="M280.2,102.2c0.4-1.7,0.9-3.1,1.5-4.4c0.6-1.3,1.3-2.3,2.2-3c0.8-0.8,1.8-1.3,2.9-1.6c1.1-0.3,2.3-0.3,3.6,0
			c1.4,0.3,2.5,0.8,3.4,1.6c0.9,0.7,1.5,1.7,1.9,2.7c0.4,1.1,0.6,2.3,0.6,3.7s-0.2,2.8-0.5,4.4c-0.7,3.3-2,5.8-3.7,7.4
			c-1.7,1.6-3.8,2.1-6.4,1.5c-1.4-0.3-2.5-0.8-3.4-1.6c-0.9-0.7-1.5-1.7-1.9-2.7c-0.4-1.1-0.6-2.3-0.6-3.7
			C279.6,105.2,279.8,103.7,280.2,102.2z M284.4,103.1c-0.2,1-0.4,1.9-0.5,2.8c-0.1,0.9-0.1,1.7,0,2.4s0.3,1.3,0.7,1.7
			c0.4,0.5,0.9,0.8,1.7,1c0.7,0.2,1.3,0.1,1.8,0c0.5-0.2,1-0.5,1.4-1.1s0.8-1.2,1.1-2.1c0.3-0.9,0.6-1.9,0.9-3.1
			c0.2-1,0.4-1.9,0.5-2.7c0.1-0.9,0.1-1.7,0-2.4c-0.1-0.7-0.3-1.3-0.7-1.8c-0.4-0.5-1-0.8-1.7-1c-1.4-0.3-2.4,0.1-3.2,1.2
			C285.5,99.1,284.9,100.8,284.4,103.1z"/>
		<path d="M297.8,109.8l3.2,0.7l-0.6,2.9c0.1,0,0.1,0.1,0.2,0.1c0.4,0.3,0.9,0.6,1.4,0.8c0.5,0.2,1.1,0.4,1.7,0.6
			c1.1,0.2,2,0.2,2.7-0.1c0.7-0.3,1.1-0.8,1.3-1.6c0.1-0.7,0-1.3-0.4-1.8c-0.4-0.5-0.9-1-1.6-1.5c-0.7-0.5-1.4-1-2.2-1.5
			c-0.8-0.5-1.5-1.1-2.1-1.7s-1.1-1.4-1.4-2.2c-0.3-0.8-0.4-1.8-0.1-3c0.2-0.9,0.5-1.6,1.1-2.3c0.5-0.7,1.1-1.2,1.9-1.6
			c0.7-0.4,1.6-0.6,2.5-0.7c0.9-0.1,1.9,0,3,0.2c1.2,0.3,2.3,0.6,3.4,1.1c1.1,0.5,2,1,2.6,1.5l-1.3,5.9l-3.2-0.7l0.7-3.3
			c-0.1,0-0.1,0-0.2-0.1c-0.4-0.2-0.8-0.4-1.3-0.6c-0.5-0.2-1-0.3-1.5-0.4c-0.9-0.2-1.7-0.2-2.3,0.1c-0.6,0.3-1,0.7-1.1,1.3
			c-0.1,0.6,0,1.2,0.4,1.7c0.4,0.5,0.9,1,1.6,1.5c0.7,0.5,1.4,1,2.2,1.5c0.8,0.5,1.5,1.1,2.1,1.8c0.6,0.6,1.1,1.4,1.4,2.2
			c0.3,0.8,0.4,1.8,0.1,2.9c-0.2,1.1-0.6,1.9-1.2,2.6c-0.6,0.7-1.3,1.2-2.1,1.6c-0.8,0.4-1.7,0.6-2.8,0.6c-1,0-2.1,0-3.2-0.3
			c-0.7-0.2-1.4-0.4-2-0.6c-0.6-0.3-1.2-0.5-1.7-0.8c-0.5-0.3-0.9-0.6-1.3-0.9c-0.4-0.3-0.7-0.5-0.9-0.7L297.8,109.8z"/>
		<path d="M316.1,117.6l3.3,0.7l3.1-14.1l-2.8-0.6l-0.8,3.5l-3.2-0.7l1.5-6.8l16,3.6l-1.5,6.8l-3.2-0.7l0.8-3.5l-2.8-0.6l-3.1,14.1
			l3.3,0.7l-0.7,3.2l-10.7-2.4L316.1,117.6z"/>
		<path d="M364.9,109.9l1.7,1.2l-16.1,21.7l-1.7-1.2L364.9,109.9z"/>
		<path d="M369.5,122.9c0-0.2,0.1-0.4,0.1-0.7c0.1-0.3,0.1-0.6,0.2-0.9s0.1-0.6,0.1-0.9c0-0.3,0.1-0.6,0.1-0.8l-2-0.4l0.4-1.9
			l3.9,0.9l-0.3,2.4l0.1,0c0.3-0.3,0.6-0.6,1-0.8c0.4-0.2,0.8-0.5,1.3-0.6c0.5-0.2,1-0.3,1.6-0.3c0.6,0,1.1,0,1.7,0.1
			c0.9,0.2,1.7,0.5,2.3,0.8c0.6,0.3,1.1,0.8,1.5,1.4s0.5,1.4,0.6,2.3s-0.1,2-0.4,3.3l-1.9,8.4l-2.3-0.5l1.8-7.9
			c0.4-1.6,0.4-2.9,0-3.8c-0.3-0.9-1.2-1.6-2.6-1.9c-0.5-0.1-1-0.1-1.5,0c-0.5,0.1-1,0.3-1.5,0.5c-0.5,0.2-0.9,0.6-1.3,0.9
			s-0.7,0.8-1,1.2l-2,9.2l-2.3-0.5L369.5,122.9z"/>
		<path d="M398.1,137.3c-0.4,0.2-0.9,0.4-1.4,0.6c-0.5,0.2-1.1,0.3-1.7,0.4c-0.6,0.1-1.2,0.1-1.9,0.1c-0.6,0-1.3-0.1-1.9-0.3
			c-1.2-0.3-2.2-0.7-3-1.2c-0.8-0.6-1.5-1.2-1.9-2.1c-0.5-0.8-0.7-1.7-0.8-2.7c-0.1-1,0-2.1,0.2-3.3c0.3-1.2,0.7-2.3,1.2-3.2
			c0.6-0.9,1.2-1.6,2-2.1c0.8-0.5,1.7-0.8,2.7-1c1-0.1,2.1-0.1,3.2,0.2c0.8,0.2,1.6,0.5,2.4,0.9c0.8,0.4,1.4,1,1.9,1.7
			c0.5,0.7,0.8,1.7,0.9,2.8c0.1,1.1-0.1,2.5-0.6,4.1l-11.3-2.5c-0.4,1.8-0.2,3.2,0.5,4.3c0.8,1.1,1.9,1.8,3.5,2.1
			c0.5,0.1,1.1,0.2,1.6,0.2c0.5,0,1.1-0.1,1.6-0.1c0.5-0.1,1-0.2,1.4-0.3c0.4-0.1,0.7-0.3,1-0.4L398.1,137.3z M394.5,124.7
			c-0.6-0.1-1.3-0.2-1.9-0.2c-0.6,0-1.2,0.1-1.7,0.4s-1,0.6-1.4,1c-0.4,0.5-0.7,1.1-1,1.8l9.1,2c0.2-1.3,0-2.4-0.6-3.3
			C396.5,125.5,395.6,125,394.5,124.7z"/>
		<path d="M412.3,130.4l1.1,8.8l0.2,0l4.6-10.9l2.1,0.5l-6.1,14l-2.6-0.6l-1-8.7l-0.1,0l-4.7,7.4l-2.6-0.6l0.2-15.3l2.3,0.5
			l-0.2,11.9l0.2,0l4.7-7.6L412.3,130.4z"/>
		<path d="M423.1,123.3l15.2,3.4l-1.2,5.4l-2.2-0.5l0.7-3.2l-4.2-0.9l-3.6,16.2l3.2,0.7l-0.5,2.2l-8.9-2l0.5-2.2l3.2,0.7l3.6-16.2
			l-4.2-0.9l-0.7,3.2l-2.2-0.5L423.1,123.3z"/>
		<path d="M441.1,134.6c0.9-0.3,2-0.4,3.1-0.4c1.1,0,2.2,0.1,3.2,0.4c1,0.2,1.8,0.6,2.3,1c0.6,0.5,1,1,1.2,1.5
			c0.2,0.6,0.4,1.2,0.4,1.9c0,0.7-0.1,1.3-0.2,2c-0.2,0.7-0.4,1.5-0.6,2.4c-0.2,0.8-0.4,1.7-0.6,2.5c-0.2,1-0.4,1.9-0.4,2.8l2,0.4
			l-0.4,1.9l-3.9-0.9l0.2-2.3l-0.1,0c-0.2,0.1-0.4,0.3-0.7,0.6c-0.3,0.2-0.7,0.4-1.1,0.6c-0.4,0.2-1,0.3-1.5,0.4
			c-0.6,0.1-1.3,0-2-0.1c-1.4-0.3-2.5-0.9-3.2-1.9s-0.9-2-0.6-3.3c0.2-1,0.6-1.8,1.2-2.3c0.6-0.6,1.3-0.9,2.2-1.1
			c0.9-0.2,1.9-0.2,3.1,0c1.2,0.2,2.5,0.6,3.9,1.1c0.3-0.9,0.5-1.6,0.5-2.2c0.1-0.6,0-1.1-0.2-1.5c-0.2-0.4-0.5-0.7-0.9-1
			s-0.9-0.4-1.6-0.6c-0.9-0.2-1.8-0.3-2.6-0.2c-0.9,0.1-1.6,0.2-2.3,0.3L441.1,134.6z M442.8,147.4c0.5,0.1,1.1,0.1,1.6,0.1
			c0.5-0.1,1-0.2,1.4-0.4c0.4-0.2,0.8-0.4,1.1-0.7c0.3-0.3,0.5-0.5,0.7-0.8l0.5-2c-1-0.4-1.9-0.7-2.8-0.9c-0.9-0.2-1.6-0.3-2.3-0.2
			c-0.7,0-1.2,0.2-1.7,0.5c-0.4,0.3-0.7,0.8-0.9,1.4c-0.1,0.6,0,1.3,0.3,1.8S441.8,147.2,442.8,147.4z"/>
		<path d="M466.2,150.2c0.1-0.6,0-1.2-0.4-1.6c-0.4-0.5-1-0.9-1.6-1.2c-0.7-0.4-1.4-0.7-2.2-1.1s-1.5-0.8-2.2-1.2
			c-0.7-0.5-1.2-1-1.5-1.6c-0.4-0.6-0.5-1.4-0.3-2.3c0.2-0.7,0.5-1.3,0.9-1.8c0.4-0.5,1-0.8,1.6-1c0.6-0.2,1.3-0.3,2-0.4
			c0.7,0,1.5,0.1,2.3,0.2c1.4,0.3,2.5,0.7,3.4,1.3c0.9,0.6,1.6,1.1,2.1,1.6l-1.3,1.6c-0.6-0.5-1.2-1-1.9-1.5
			c-0.7-0.5-1.6-0.9-2.7-1.1c-0.4-0.1-0.9-0.1-1.3-0.2c-0.4,0-0.8,0-1.2,0.1c-0.4,0.1-0.7,0.3-1,0.5c-0.3,0.2-0.4,0.6-0.5,1
			c-0.1,0.5,0,1,0.5,1.3s1,0.7,1.7,1.1s1.4,0.7,2.2,1.1c0.8,0.4,1.5,0.8,2.2,1.2c0.7,0.5,1.2,1,1.5,1.7c0.4,0.6,0.5,1.4,0.3,2.3
			c-0.3,1.3-1.1,2.3-2.3,3c-1.3,0.6-3,0.7-5.1,0.3c-0.6-0.1-1.3-0.3-1.9-0.6c-0.6-0.3-1.2-0.5-1.7-0.9c-0.5-0.3-1-0.6-1.3-1
			c-0.4-0.3-0.7-0.7-0.9-1l1.6-1.6c0.2,0.3,0.4,0.6,0.8,0.9c0.3,0.3,0.7,0.6,1.1,0.9c0.4,0.3,0.9,0.6,1.4,0.8c0.5,0.2,1,0.4,1.6,0.5
			c0.5,0.1,1,0.2,1.5,0.2c0.5,0,0.9,0,1.3-0.1c0.4-0.1,0.7-0.3,1-0.5C465.9,151,466.1,150.7,466.2,150.2z"/>
		<path d="M475.3,134.9l4.7,1.1l-2.7,12.1l1.6,0.4l7.2-5l2.8,0.6l-8,5.5l4.1,6.9l1.9,0.4l-0.4,2l-3-0.7l-4.8-8l-1.6-0.4l-1.5,6.6
			l-2.3-0.5l4.1-18.5l-2.5-0.6L475.3,134.9z"/>
	</g>
	<text transform="matrix(-2.760777e-02 -0.9996 0.9996 -2.760777e-02 115.6976 400.2015)" class="st3 st4 st5">клиенты</text>
	<text transform="matrix(1 0 0 1 692.2812 303.0435)" class="st3 st6">REST API</text>
	<g>
		<g>
			<g>
				<path d="M170.5,102.5c-11,12.7,15.1,25,24.1,14.9c4.9-5.5,2-13.8-3.1-18c-4.1-3.5-13.5-8.5-17.4-2.2c-1.7,2.8,2.7,5.3,4.3,2.5
					c2-3.3,19.4,7.1,12.1,14.4c-4.7,4.7-22.5-1.2-16.5-8.2C176.1,103.6,172.6,100.1,170.5,102.5L170.5,102.5z"/>
			</g>
		</g>
		<g>
			<g>
				<path d="M179.3,120.6c-0.1,12.7,0.3,25.4,1.2,38c0.2,3.2,5.2,3.2,5,0c-0.9-12.7-1.3-25.3-1.2-38
					C184.3,117.4,179.3,117.4,179.3,120.6L179.3,120.6z"/>
			</g>
		</g>
		<g>
			<g>
				<path d="M179.1,128.3c-3.8,2.3-6.6,6.1-7.3,10.6c-0.5,3.1,4.3,4.5,4.8,1.3c0.5-3.2,2.2-5.9,5-7.6
					C184.4,131,181.9,126.7,179.1,128.3L179.1,128.3z"/>
			</g>
		</g>
		<g>
			<g>
				<path d="M180.2,132.8c3,1.7,5.4,4.1,7.1,7.1c1.6,2.8,5.9,0.3,4.3-2.5c-2.2-3.7-5.2-6.7-8.9-8.9
					C179.9,126.8,177.4,131.2,180.2,132.8L180.2,132.8z"/>
			</g>
		</g>
		<g>
			<g>
				<path d="M175.1,164c-1.6,4-3.3,8-4.9,12c-1.2,3,3.6,4.3,4.8,1.3c1.6-4,3.3-8,4.9-12C181.2,162.3,176.3,161,175.1,164L175.1,164z
					"/>
			</g>
		</g>
		<g>
			<g>
				<path d="M184.2,164.9c2.9,4.1,5.3,8.5,7.2,13.2c1.2,2.9,6,1.7,4.8-1.3c-2.1-5.1-4.6-9.9-7.7-14.4
					C186.7,159.7,182.4,162.2,184.2,164.9L184.2,164.9z"/>
			</g>
		</g>
	</g>
	<g>
		<g>
			<g>
				<path d="M172.2,441c-0.9,7.5,4.4,15,11.8,16.6c7.3,1.6,13.4-3.3,12.9-10.8c-0.5-7-5.9-15-12.9-16.9c-6.9-1.9-13.7,3.6-12.7,10.7
					c0.4,3.2,5.3,1.8,4.8-1.3c-0.5-3.6,3.9-5.2,6.6-4.5c1.8,0.4,3.2,1.6,4.5,2.9c2.6,2.6,4.9,6.7,4.8,10.5
					c-0.3,5.8-6.7,5.6-10.3,3.1c-3.4-2.4-4.9-6.1-4.4-10.1C177.6,437.8,172.6,437.9,172.2,441L172.2,441z"/>
			</g>
		</g>
		<g>
			<g>
				<path d="M180.9,462c-0.7,11.3-0.2,22.5,1.6,33.6c0.5,3.2,5.3,1.8,4.8-1.3c-1.7-10.7-2.1-21.5-1.4-32.3
					C186.1,458.8,181.1,458.8,180.9,462L180.9,462z"/>
			</g>
		</g>
		<g>
			<g>
				<path d="M170.6,483.4c8.7,0.5,17.3,0.2,26-1c3.1-0.4,3.2-5.4,0-5c-8.6,1.1-17.3,1.4-26,1C167.4,478.3,167.4,483.3,170.6,483.4
					L170.6,483.4z"/>
			</g>
		</g>
		<g>
			<g>
				<path d="M178.9,502.3c-4,3.8-7.3,8.4-9.6,13.4c-1.3,2.9,3,5.5,4.3,2.5c2.1-4.7,5-8.8,8.8-12.4
					C184.7,503.6,181.2,500,178.9,502.3L178.9,502.3z"/>
			</g>
		</g>
		<g>
			<g>
				<path d="M185.9,501.7c4.4,1.1,7.4,4.6,8.2,9c0.6,3.2,5.4,1.8,4.8-1.3c-1.1-6-5.8-10.9-11.7-12.5
					C184.1,496.1,182.8,500.9,185.9,501.7L185.9,501.7z"/>
			</g>
		</g>
	</g>
	<g>
		<g>
			<g>
				<path d="M170,280.9c0.5,7.7,6.2,14.8,14.2,15.6c9.1,1,13.6-6.7,11-14.9c-2.3-7.5-8.6-15.8-17.4-14.9c-7.4,0.8-11.4,9.3-6.3,15.1
					c2.2,2.4,5.7-1.1,3.5-3.5c-2.2-2.4-0.3-5.7,2.4-6.4c2.8-0.8,5.6,0.6,7.6,2.5c2.7,2.5,4.8,6.4,5.6,9.9c1.3,5.7-3.1,8.7-8.4,6.8
					c-4.3-1.6-7.1-5.6-7.4-10.1C174.8,277.7,169.8,277.6,170,280.9L170,280.9z"/>
			</g>
		</g>
		<g>
			<g>
				<path d="M171.7,285.3c5.5,14,9,28.6,10.2,43.6c0.3,3.2,5.3,3.2,5,0c-1.2-15.4-4.7-30.5-10.3-44.9
					C175.4,281,170.5,282.3,171.7,285.3L171.7,285.3z"/>
			</g>
		</g>
		<g>
			<g>
				<path d="M171.8,321.1c7.5-4,15.2-7.3,23.3-9.9c3.1-1,1.7-5.8-1.3-4.8c-8.5,2.7-16.7,6.2-24.5,10.4
					C166.5,318.3,169,322.6,171.8,321.1L171.8,321.1z"/>
			</g>
		</g>
		<g>
			<g>
				<path d="M182.6,326.7c-4.5,0.2-8.1,2.9-9.9,7.1c-2.2,5.2-0.5,10.8,1.4,15.8c1.1,3,6,1.7,4.8-1.3c-1.8-4.8-4.9-16.2,3.7-16.5
					C185.8,331.6,185.9,326.6,182.6,326.7L182.6,326.7z"/>
			</g>
		</g>
		<g>
			<g>
				<path d="M184.3,332.5c3.4-1.1,7.8,2,7.1,5.7c-0.6,3.1,4.3,4.5,4.8,1.3c1.3-7.3-6-14.3-13.3-11.9
					C179.9,328.7,181.2,333.5,184.3,332.5L184.3,332.5z"/>
			</g>
		</g>
	</g>
	<g>
		<g>
			<g>
				<path d="M218.5,480.4c97.6-40.6,199.5-70.9,303.5-90c29.9-5.5,60-10.1,90.2-13.7c3.2-0.4,3.2-5.4,0-5
					c-105.8,12.8-210.2,36.9-310.9,71.8c-28.4,9.9-56.4,20.6-84.2,32.1C214.3,476.8,215.6,481.6,218.5,480.4L218.5,480.4z"/>
			</g>
		</g>
		<g>
			<g>
				<path d="M587.9,368.6c7.6,2.9,15.2,5.8,22.8,8.7c-0.2-1.5-0.4-3-0.6-4.6c-11.5,5.7-21,14.4-28,25.2c-1.7,2.7,2.6,5.2,4.3,2.5
					c6.5-10.1,15.4-18,26.2-23.4c2.1-1.1,1.2-3.9-0.6-4.6c-7.6-2.9-15.2-5.8-22.8-8.7C586.2,362.6,584.9,367.4,587.9,368.6
					L587.9,368.6z"/>
			</g>
		</g>
	</g>
	<g>
		<g>
			<g>
				<path d="M227.1,304.3c106.8-5.3,213.8-8.5,320.8-9.4c30.6-0.3,61.1-0.3,91.7-0.2c3.2,0,3.2-5,0-5c-107-0.3-214,1.5-320.9,5.6
					c-30.5,1.2-61.1,2.5-91.6,4C223.9,299.4,223.9,304.4,227.1,304.3L227.1,304.3z"/>
			</g>
		</g>
		<g>
			<g>
				<path d="M613.1,285.4c9.2,6.5,19.2,11.4,30,14.6c0-1.6,0-3.2,0-4.8c-15,6.1-30,12.2-45,18.3c-2.9,1.2-1.7,6,1.3,4.8
					c15-6.1,30-12.2,45-18.3c2.2-0.9,2.6-4.1,0-4.8c-10.4-3.1-20-7.8-28.8-14.1C613,279.2,610.5,283.5,613.1,285.4L613.1,285.4z"/>
			</g>
		</g>
	</g>
	<g>
		<g>
			<g>
				<path d="M224.1,134.6c107.4,10.1,213.2,35.4,313.5,75.1c28.8,11.4,57,23.9,84.7,37.6c2.9,1.4,5.4-2.9,2.5-4.3
					c-97.7-48.1-202.1-82.3-309.4-101.1c-30.3-5.3-60.8-9.4-91.4-12.2C220.9,129.3,220.9,134.3,224.1,134.6L224.1,134.6z"/>
			</g>
		</g>
		<g>
			<g>
				<path d="M605.1,251.5c8.5,0.1,17.1,0.2,25.6,0.3c1.8,0,2.6-1.6,2.4-3.2c-1.4-10.2-3.5-20.2-6.1-30.2c-0.8-3.1-5.6-1.8-4.8,1.3
					c2.6,10,4.6,20,6.1,30.2c0.8-1.1,1.6-2.1,2.4-3.2c-8.5-0.1-17.1-0.2-25.6-0.3C601.9,246.5,601.9,251.5,605.1,251.5L605.1,251.5z
					"/>
			</g>
		</g>
	</g>
	<g>
		<path d="M267.9,270.6h7.2v9.5c-0.7,0.6-1.6,1.1-2.7,1.4c-1.1,0.3-2.2,0.5-3.3,0.5c-1.3,0-2.6-0.2-3.8-0.7c-1.2-0.5-2.2-1.2-3-2.1
			s-1.5-2.1-2-3.5c-0.5-1.4-0.8-3-0.8-4.8c0-1.9,0.3-3.6,0.9-4.9c0.6-1.4,1.4-2.5,2.3-3.3c0.9-0.9,2-1.5,3.2-1.9
			c1.2-0.4,2.3-0.6,3.5-0.6c1.2,0,2.2,0.1,3,0.3c0.8,0.2,1.5,0.4,2.2,0.7v6.2h-3.3v-3.3c-0.2,0-0.3-0.1-0.5-0.1
			c-0.4-0.1-0.8-0.1-1.3-0.1c-0.8,0-1.6,0.1-2.3,0.4c-0.7,0.3-1.3,0.7-1.8,1.3c-0.5,0.6-0.9,1.3-1.2,2.3c-0.3,0.9-0.4,2-0.4,3.3
			c0,1.1,0.1,2.2,0.4,3.1c0.3,0.9,0.7,1.7,1.2,2.3c0.5,0.6,1.1,1.1,1.8,1.4c0.7,0.3,1.4,0.5,2.2,0.5c0.5,0,1-0.1,1.4-0.2
			c0.4-0.1,0.7-0.2,0.9-0.4v-4.2h-3.8V270.6z"/>
		<path d="M278.4,260.6h13.8v3.7h-9.7v4.9h8.9v3.7h-8.9v5.1h9.8v3.7h-13.9V260.6z"/>
		<path d="M297.8,278.3h3.4v-14.4h-2.9v3.6H295v-6.9h16.4v6.9h-3.3v-3.6h-2.9v14.4h3.4v3.3h-10.9V278.3z"/>
		<path d="M343.8,260.2l1.9,0.8l-10.9,24.7l-1.9-0.8L343.8,260.2z"/>
		<path d="M349.2,266.6h3.6v-3l2.4-0.7v3.6h8v2h-8v7.1c0,1.5,0.4,2.5,1.1,3.2c0.7,0.7,1.7,1,3,1c0.9,0,1.7-0.2,2.3-0.5
			c0.7-0.3,1.3-0.7,1.8-1.1l0.8,1.8c-0.7,0.6-1.5,1-2.5,1.4c-1,0.3-2,0.5-3,0.5c-0.8,0-1.6-0.1-2.3-0.3c-0.7-0.2-1.3-0.6-1.9-1.1
			s-1-1.1-1.3-1.8c-0.3-0.8-0.5-1.6-0.5-2.7v-7.4h-3.6V266.6z"/>
		<path d="M369.5,267.8c0.9-0.5,1.8-0.9,2.9-1.1c1.1-0.2,2.1-0.3,3.2-0.3c1,0,1.9,0.2,2.5,0.5s1.2,0.7,1.5,1.2
			c0.4,0.5,0.6,1.1,0.8,1.7c0.1,0.6,0.2,1.3,0.2,2c0,0.8,0,1.6-0.1,2.4c0,0.9-0.1,1.7-0.1,2.6c0,1,0.1,1.9,0.2,2.8h2v2h-4l-0.3-2.2
			h-0.2c-0.1,0.2-0.3,0.4-0.5,0.7c-0.2,0.3-0.6,0.6-0.9,0.8c-0.4,0.3-0.9,0.5-1.4,0.7s-1.2,0.3-2,0.3c-1.5,0-2.7-0.4-3.5-1.1
			c-0.9-0.8-1.3-1.8-1.3-3.1c0-1,0.2-1.9,0.7-2.5c0.5-0.7,1.1-1.2,1.9-1.6s1.9-0.6,3.1-0.6s2.5,0,4,0.2c0.1-0.9,0.1-1.7,0-2.3
			c-0.1-0.6-0.2-1.1-0.5-1.5c-0.3-0.4-0.6-0.6-1.1-0.8s-1-0.2-1.7-0.2c-0.9,0-1.8,0.1-2.6,0.4c-0.8,0.3-1.6,0.5-2.2,0.8L369.5,267.8
			z M373.9,279.9c0.6,0,1.1-0.1,1.6-0.3c0.5-0.2,0.9-0.4,1.3-0.7c0.4-0.3,0.7-0.6,0.9-0.9c0.2-0.3,0.4-0.6,0.5-0.9v-2.1
			c-1-0.2-2-0.3-2.9-0.3c-0.9,0-1.6,0.1-2.3,0.3c-0.6,0.2-1.1,0.5-1.5,0.9c-0.4,0.4-0.5,0.9-0.5,1.6c0,0.7,0.2,1.2,0.7,1.7
			C372.1,279.6,372.9,279.9,373.9,279.9z"/>
		<path d="M397.4,277.5c0-0.6-0.2-1.1-0.7-1.5c-0.5-0.3-1.1-0.6-1.9-0.8s-1.5-0.4-2.4-0.6c-0.9-0.2-1.7-0.4-2.4-0.7
			c-0.7-0.3-1.4-0.7-1.9-1.2c-0.5-0.5-0.7-1.2-0.7-2.1c0-0.8,0.2-1.4,0.5-2c0.3-0.5,0.8-1,1.3-1.3c0.5-0.3,1.2-0.6,1.9-0.8
			c0.7-0.2,1.5-0.3,2.2-0.3c1.4,0,2.6,0.2,3.6,0.5c1,0.4,1.8,0.7,2.4,1.1l-1,1.9c-0.7-0.4-1.4-0.7-2.1-1c-0.8-0.3-1.7-0.5-2.9-0.5
			c-0.4,0-0.9,0-1.3,0.1c-0.4,0.1-0.8,0.2-1.2,0.4c-0.3,0.2-0.6,0.4-0.8,0.7c-0.2,0.3-0.3,0.6-0.3,1.1c0,0.5,0.2,0.9,0.7,1.2
			c0.5,0.3,1.1,0.5,1.9,0.7c0.7,0.2,1.5,0.4,2.4,0.5c0.9,0.2,1.7,0.4,2.4,0.7c0.7,0.3,1.4,0.8,1.9,1.3c0.5,0.5,0.7,1.3,0.7,2.2
			c0,1.4-0.5,2.5-1.6,3.4c-1.1,0.9-2.7,1.4-4.9,1.4c-0.7,0-1.3-0.1-1.9-0.2c-0.6-0.1-1.2-0.3-1.8-0.5c-0.6-0.2-1.1-0.4-1.5-0.7
			c-0.5-0.2-0.8-0.5-1.1-0.8l1.2-1.9c0.2,0.2,0.6,0.5,1,0.7c0.4,0.3,0.8,0.5,1.3,0.7c0.5,0.2,1,0.4,1.5,0.5c0.5,0.1,1.1,0.2,1.7,0.2
			c0.5,0,1,0,1.5-0.1c0.5-0.1,0.9-0.2,1.2-0.4c0.4-0.2,0.6-0.4,0.9-0.8C397.3,278.4,397.4,278,397.4,277.5z"/>
		<path d="M403,260.6h4.9V273h1.6l5.9-6.4h2.8l-6.6,7.1l5.5,5.9h2v2h-3.1l-6.4-6.8h-1.6v6.8h-2.3v-19H403V260.6z"/>
		<path d="M422,260.6h14.4v2.2h-6v16.6h6v2.2H422v-2.2h5.9v-16.6H422V260.6z"/>
		<path d="M448.7,260.6h4.9v15.9c0,0.2,0,0.4,0,0.7s0,0.6,0.1,0.9c0,0.3,0.1,0.6,0.1,0.9c0,0.3,0.1,0.5,0.1,0.8h2v2h-4l-0.3-2.3
			h-0.1c-0.4,0.8-1.1,1.4-2,1.9c-0.9,0.5-1.9,0.8-3,0.8c-2.3,0-3.9-0.6-5-1.9c-1.1-1.3-1.6-3.2-1.6-5.9c0-1.3,0.2-2.4,0.5-3.3
			c0.4-1,0.9-1.8,1.5-2.4c0.7-0.6,1.5-1.1,2.4-1.5c0.9-0.3,2-0.5,3.1-0.5c0.4,0,0.8,0,1.1,0c0.3,0,0.6,0.1,0.9,0.1
			c0.3,0,0.5,0.1,0.8,0.2c0.2,0.1,0.5,0.1,0.8,0.2v-4.3h-2.5V260.6z M446.9,279.9c1.2,0,2.2-0.3,2.9-0.9c0.7-0.6,1.2-1.6,1.4-2.8v-7
			c-0.4-0.3-0.9-0.5-1.5-0.7c-0.5-0.1-1.3-0.2-2.2-0.2c-1.6,0-2.9,0.5-3.8,1.4c-0.9,0.9-1.4,2.4-1.4,4.4c0,0.8,0.1,1.6,0.2,2.3
			s0.4,1.3,0.7,1.8c0.3,0.5,0.8,0.9,1.4,1.2C445.4,279.8,446.1,279.9,446.9,279.9z"/>
	</g>
	<g>
		<path d="M243.3,426.4l7-1.7l2.2,9.2c-0.5,0.8-1.3,1.4-2.2,2s-2,1-3.1,1.3c-1.3,0.3-2.6,0.4-3.8,0.2c-1.2-0.2-2.4-0.6-3.5-1.3
			s-2-1.7-2.8-2.9c-0.8-1.2-1.4-2.7-1.9-4.5c-0.5-1.9-0.6-3.6-0.3-5c0.3-1.5,0.8-2.7,1.5-3.8c0.7-1.1,1.6-1.9,2.7-2.6
			c1.1-0.7,2.1-1.1,3.3-1.4c1.2-0.3,2.2-0.4,3-0.4c0.8,0,1.6,0.1,2.3,0.2l1.5,6l-3.2,0.8l-0.8-3.2c-0.2,0-0.3,0-0.5,0
			c-0.4,0-0.8,0.1-1.3,0.2c-0.8,0.2-1.5,0.5-2.1,0.9c-0.6,0.4-1.1,1-1.5,1.7c-0.4,0.7-0.6,1.5-0.6,2.5c-0.1,1,0.1,2.1,0.4,3.3
			c0.3,1.1,0.6,2.1,1.1,2.9c0.5,0.8,1,1.5,1.7,1.9c0.6,0.5,1.3,0.8,2.1,1c0.7,0.1,1.5,0.1,2.3-0.1c0.5-0.1,1-0.3,1.3-0.5
			c0.4-0.2,0.6-0.4,0.8-0.6l-1-4.1l-3.7,0.9L243.3,426.4z"/>
		<path d="M251.1,414.2l13.4-3.2l0.9,3.6l-9.4,2.3l1.2,4.8l8.7-2.1l0.9,3.6l-8.7,2.1l1.2,5l9.5-2.3l0.9,3.6l-13.5,3.3L251.1,414.2z"
			/>
		<path d="M274.1,426.9l3.3-0.8l-3.4-14l-2.8,0.7l0.9,3.5l-3.2,0.8l-1.6-6.7l16-3.9l1.6,6.7l-3.2,0.8l-0.9-3.5l-2.8,0.7l3.4,14
			l3.3-0.8l0.8,3.2l-10.6,2.6L274.1,426.9z"/>
		<path d="M314.6,398.5l2,0.4l-4.8,26.6l-2-0.4L314.6,398.5z"/>
		<path d="M321.3,403.4l3.5-0.8l-0.7-2.9l2.1-1.2l0.9,3.5l7.8-1.9l0.5,2l-7.8,1.9l1.7,6.9c0.3,1.4,0.9,2.4,1.8,2.9
			c0.9,0.5,1.9,0.6,3.2,0.3c0.9-0.2,1.6-0.6,2.2-1c0.6-0.5,1.1-1,1.5-1.5l1.2,1.5c-0.5,0.7-1.3,1.3-2.1,1.9s-1.8,1-2.8,1.2
			c-0.8,0.2-1.5,0.3-2.3,0.2c-0.7-0.1-1.4-0.3-2.1-0.6c-0.6-0.3-1.2-0.8-1.7-1.5c-0.5-0.7-0.9-1.5-1.1-2.5l-1.8-7.2l-3.5,0.8
			L321.3,403.4z"/>
		<path d="M341.3,399.8c0.7-0.7,1.6-1.3,2.6-1.7c1-0.5,2-0.8,3-1.1c1-0.2,1.8-0.3,2.5-0.1c0.7,0.2,1.3,0.4,1.8,0.8
			c0.5,0.4,0.9,0.9,1.1,1.5c0.3,0.6,0.5,1.2,0.7,1.9c0.2,0.7,0.3,1.5,0.5,2.4c0.2,0.8,0.3,1.7,0.5,2.5c0.2,1,0.5,1.9,0.8,2.7l2-0.5
			l0.5,1.9l-3.9,0.9l-0.8-2.1l-0.1,0c-0.1,0.2-0.2,0.5-0.4,0.8c-0.2,0.3-0.4,0.7-0.7,1c-0.3,0.4-0.7,0.7-1.2,1s-1.1,0.6-1.9,0.8
			c-1.4,0.3-2.7,0.3-3.7-0.3c-1-0.5-1.7-1.4-2-2.7c-0.2-1-0.2-1.9,0.1-2.6c0.3-0.8,0.8-1.4,1.5-2c0.7-0.5,1.7-1,2.8-1.3
			c1.1-0.3,2.5-0.6,4-0.7c-0.1-0.9-0.3-1.7-0.5-2.2c-0.2-0.6-0.5-1-0.8-1.3c-0.3-0.3-0.7-0.5-1.2-0.5s-1,0-1.7,0.2
			c-0.9,0.2-1.7,0.5-2.4,1c-0.7,0.4-1.4,0.9-2,1.3L341.3,399.8z M348.5,410.5c0.5-0.1,1-0.3,1.5-0.6c0.4-0.3,0.8-0.6,1.1-1
			c0.3-0.4,0.5-0.7,0.7-1.1c0.2-0.4,0.3-0.7,0.3-1l-0.5-2c-1.1,0.1-2,0.2-2.9,0.4s-1.6,0.5-2.1,0.8c-0.6,0.3-1,0.7-1.2,1.2
			c-0.3,0.5-0.3,1-0.2,1.6c0.2,0.6,0.5,1.1,1.1,1.5S347.5,410.7,348.5,410.5z"/>
		<path d="M370.7,402.7c-0.2-0.6-0.5-1-1.1-1.3c-0.6-0.2-1.2-0.3-2-0.4c-0.8,0-1.6,0-2.5,0c-0.9,0-1.7,0-2.5-0.1
			c-0.8-0.1-1.5-0.4-2.1-0.7s-1-1-1.2-1.9c-0.2-0.7-0.2-1.4,0-2c0.2-0.6,0.5-1.1,1-1.6c0.4-0.5,1-0.9,1.7-1.2
			c0.7-0.3,1.4-0.6,2.1-0.8c1.4-0.3,2.6-0.4,3.6-0.3c1.1,0.1,1.9,0.3,2.6,0.5l-0.5,2.1c-0.7-0.2-1.5-0.4-2.3-0.5
			c-0.8-0.1-1.8-0.1-2.9,0.2c-0.4,0.1-0.8,0.2-1.2,0.4c-0.4,0.2-0.7,0.4-1,0.7c-0.3,0.3-0.5,0.6-0.6,0.9c-0.1,0.3-0.2,0.7-0.1,1.1
			c0.1,0.5,0.5,0.8,1,1c0.5,0.2,1.2,0.2,2,0.2c0.8,0,1.6,0,2.5,0s1.7,0,2.5,0.1c0.8,0.1,1.5,0.4,2.1,0.8c0.6,0.4,1,1.1,1.2,2
			c0.3,1.3,0.1,2.6-0.8,3.7s-2.3,2-4.5,2.5c-0.6,0.2-1.3,0.2-1.9,0.3c-0.7,0-1.3,0-1.9,0c-0.6-0.1-1.1-0.2-1.6-0.3
			c-0.5-0.1-0.9-0.3-1.3-0.5l0.7-2.2c0.3,0.2,0.7,0.3,1.1,0.5c0.4,0.1,0.9,0.3,1.4,0.3c0.5,0.1,1,0.1,1.6,0.1c0.6,0,1.1-0.1,1.7-0.2
			c0.5-0.1,1-0.3,1.4-0.5c0.4-0.2,0.8-0.4,1.1-0.7c0.3-0.3,0.5-0.6,0.7-0.9C370.8,403.5,370.8,403.1,370.7,402.7z"/>
		<path d="M372.2,384.9l4.7-1.1l2.9,12.1l1.6-0.4l4.2-7.6l2.7-0.7l-4.8,8.5l6.7,4.4l1.9-0.5l0.5,2l-3,0.7l-7.8-5.1l-1.6,0.4l1.6,6.6
			l-2.2,0.5l-4.5-18.5l-2.5,0.6L372.2,384.9z"/>
		<path d="M390.7,380.4l14-3.4l0.5,2.2l-5.8,1.4l3.9,16.1l5.8-1.4l0.5,2.2l-14,3.4l-0.5-2.2l5.8-1.4l-3.9-16.1l-5.8,1.4L390.7,380.4
			z"/>
		<path d="M416.6,374.2l4.8-1.1l3.7,15.4c0,0.2,0.1,0.4,0.2,0.6s0.2,0.5,0.3,0.8c0.1,0.3,0.2,0.6,0.3,0.8s0.2,0.5,0.3,0.7l2-0.5
			l0.5,1.9l-3.9,0.9l-0.8-2.2l-0.1,0c-0.2,0.8-0.7,1.6-1.5,2.3c-0.7,0.7-1.6,1.2-2.7,1.5c-2.2,0.5-4,0.3-5.3-0.7s-2.3-2.8-2.9-5.4
			c-0.3-1.2-0.4-2.3-0.3-3.4c0.1-1,0.4-1.9,0.9-2.7c0.5-0.8,1.2-1.5,2-2c0.8-0.6,1.8-1,2.9-1.2c0.4-0.1,0.8-0.2,1.1-0.2
			c0.3-0.1,0.6-0.1,0.9-0.1c0.3,0,0.6,0,0.8,0c0.3,0,0.5,0,0.9,0l-1-4.1l-2.4,0.6L416.6,374.2z M419.4,393.4c1.2-0.3,2-0.8,2.6-1.6
			c0.5-0.8,0.8-1.8,0.7-3.1l-1.6-6.8c-0.5-0.2-1-0.3-1.6-0.3s-1.3,0.1-2.2,0.3c-1.5,0.4-2.7,1.1-3.3,2.2c-0.7,1.1-0.8,2.7-0.3,4.6
			c0.2,0.8,0.4,1.5,0.8,2.2c0.3,0.7,0.7,1.2,1.2,1.6c0.5,0.4,1,0.7,1.6,0.9C417.9,393.6,418.6,393.6,419.4,393.4z"/>
		<path d="M437,368.8l2,0.4l-4.8,26.6l-2-0.4L437,368.8z"/>
		<path d="M448.3,388.1l-0.5-2l3.9-1l-2.6-10.7l-3.9,1l-0.5-2l5.5-1.3l0.9,1.8l0.1,0c0.5-0.8,1.1-1.5,1.8-2.1
			c0.7-0.6,1.6-1.1,2.8-1.3c0.7-0.2,1.2-0.2,1.7,0c0.5,0.2,0.9,0.5,1.2,0.9c0.3,0.4,0.6,1,0.9,1.7c0.2,0.7,0.5,1.4,0.7,2.3l-2,0.5
			c-0.3-1.2-0.6-2.1-1-2.6s-0.9-0.7-1.5-0.5c-0.6,0.1-1.1,0.4-1.6,0.7s-0.8,0.6-1.1,0.9s-0.5,0.7-0.7,1c-0.2,0.3-0.3,0.6-0.4,0.8
			l2.1,8.6l5.6-1.4l0.5,2L448.3,388.1z"/>
		<path d="M478.9,378.7c-0.3,0.4-0.6,0.8-1,1.2s-0.9,0.7-1.4,1.1c-0.5,0.3-1.1,0.6-1.7,0.9c-0.6,0.3-1.2,0.5-1.8,0.6
			c-1.2,0.3-2.2,0.4-3.2,0.2c-1-0.1-1.9-0.5-2.6-1c-0.8-0.5-1.4-1.2-2-2.1c-0.5-0.9-0.9-1.9-1.2-3c-0.3-1.2-0.4-2.4-0.3-3.4
			c0.1-1,0.4-2,0.9-2.7c0.5-0.8,1.1-1.5,2-2c0.8-0.6,1.8-1,2.9-1.3c0.8-0.2,1.6-0.3,2.5-0.3c0.8,0,1.7,0.3,2.4,0.7
			c0.8,0.4,1.4,1.1,2,2.1c0.6,1,1,2.3,1.3,4l-11.3,2.7c0.4,1.8,1.2,2.9,2.4,3.6c1.2,0.6,2.5,0.8,4.1,0.4c0.5-0.1,1-0.3,1.5-0.6
			c0.5-0.3,0.9-0.5,1.4-0.8c0.4-0.3,0.8-0.6,1.1-0.9c0.3-0.3,0.5-0.6,0.7-0.8L478.9,378.7z M470,369.1c-0.6,0.2-1.2,0.4-1.8,0.6
			c-0.5,0.3-1,0.6-1.3,1.1c-0.4,0.4-0.6,0.9-0.8,1.5c-0.2,0.6-0.2,1.3-0.1,2l9-2.2c-0.4-1.3-1.1-2.2-2-2.7
			C472.3,368.9,471.2,368.8,470,369.1z"/>
		<path d="M493.2,373.1c-0.2-0.6-0.5-1-1.1-1.3c-0.6-0.2-1.2-0.3-2-0.4c-0.8,0-1.6,0-2.5,0s-1.7,0-2.5-0.1c-0.8-0.1-1.5-0.4-2.1-0.7
			c-0.6-0.4-1-1-1.2-1.9c-0.2-0.7-0.2-1.4,0-2c0.2-0.6,0.5-1.1,1-1.6c0.4-0.5,1-0.9,1.7-1.2c0.7-0.3,1.4-0.6,2.1-0.8
			c1.4-0.3,2.6-0.4,3.6-0.3c1.1,0.1,1.9,0.3,2.6,0.5l-0.5,2.1c-0.7-0.2-1.5-0.4-2.3-0.5c-0.8-0.1-1.8-0.1-2.9,0.2
			c-0.4,0.1-0.8,0.2-1.2,0.4c-0.4,0.2-0.7,0.4-1,0.7c-0.3,0.3-0.5,0.6-0.6,0.9c-0.1,0.3-0.2,0.7-0.1,1.1c0.1,0.5,0.5,0.8,1,1
			c0.5,0.2,1.2,0.2,2,0.2c0.8,0,1.6,0,2.5,0c0.9,0,1.7,0,2.5,0.1c0.8,0.1,1.5,0.4,2.1,0.8c0.6,0.4,1,1.1,1.2,2
			c0.3,1.3,0.1,2.6-0.8,3.7c-0.8,1.1-2.3,2-4.5,2.5c-0.6,0.2-1.3,0.2-1.9,0.3c-0.7,0-1.3,0-1.9,0c-0.6-0.1-1.1-0.2-1.6-0.3
			c-0.5-0.1-0.9-0.3-1.3-0.5l0.7-2.2c0.3,0.2,0.7,0.3,1.1,0.5c0.4,0.1,0.9,0.3,1.4,0.3c0.5,0.1,1,0.1,1.6,0.1c0.6,0,1.1-0.1,1.7-0.2
			c0.5-0.1,1-0.3,1.4-0.5c0.4-0.2,0.8-0.4,1.1-0.7c0.3-0.3,0.5-0.6,0.7-0.9C493.3,373.9,493.3,373.5,493.2,373.1z"/>
		<path d="M505.9,358.7l4.2-1l2.4,9.9c0.2,1,0.5,1.9,0.8,2.7l2-0.5l0.5,1.9l-3.9,0.9l-0.7-2.5l-0.1,0c-0.3,1-0.8,1.8-1.5,2.5
			s-1.7,1.2-2.8,1.5c-0.9,0.2-1.7,0.3-2.4,0.2s-1.3-0.3-1.8-0.7c-0.5-0.4-1-1-1.4-1.8s-0.8-1.8-1.1-3.1l-1.6-6.4l-2,0.5l-0.5-2
			l4.3-1l1.9,7.9c0.2,0.8,0.4,1.5,0.6,2.1c0.2,0.6,0.5,1.1,0.8,1.5s0.7,0.6,1.2,0.8c0.5,0.1,1.1,0.1,1.7-0.1c1-0.2,1.8-0.8,2.4-1.6
			c0.6-0.8,0.9-1.8,1.1-2.9l-1.8-7.6l-1.9,0.5L505.9,358.7z"/>
		<path d="M514.9,350.4l4.9-1.2l3.8,15.5c0.3,1.2,0.7,2,1.2,2.4c0.5,0.4,1.2,0.5,1.9,0.3c0.5-0.1,1-0.4,1.5-0.7
			c0.4-0.3,0.9-0.8,1.4-1.4l1.4,1.3c-0.2,0.3-0.5,0.7-0.8,1c-0.3,0.3-0.7,0.6-1,0.8c-0.4,0.2-0.7,0.4-1.1,0.6
			c-0.4,0.2-0.7,0.3-1.1,0.4c-0.7,0.2-1.4,0.2-2,0.2s-1.2-0.2-1.6-0.5c-0.5-0.3-0.9-0.8-1.3-1.4c-0.4-0.6-0.7-1.4-0.9-2.4l-3.3-13.6
			l-2.6,0.6L514.9,350.4z"/>
		<path d="M531.3,352.6l3.5-0.8l-0.7-2.9l2.1-1.2l0.9,3.5l7.8-1.9l0.5,2l-7.8,1.9l1.7,6.9c0.3,1.4,0.9,2.4,1.8,2.9
			c0.9,0.5,1.9,0.6,3.2,0.3c0.9-0.2,1.6-0.6,2.2-1c0.6-0.5,1.1-1,1.5-1.5l1.2,1.5c-0.5,0.7-1.3,1.3-2.1,1.9c-0.9,0.6-1.8,1-2.8,1.2
			c-0.8,0.2-1.5,0.3-2.3,0.2s-1.4-0.3-2.1-0.6c-0.6-0.3-1.2-0.8-1.7-1.5c-0.5-0.7-0.9-1.5-1.1-2.5l-1.8-7.2l-3.5,0.8L531.3,352.6z"
			/>
	</g>
</g>
<g id="Layer_3">
	<g id="color">
		<g>
			<g>
				<defs>
					<polygon id="SVGID_1_" points="149,404.5 150,404.5 149,405.5 					"/>
				</defs>
				<clipPath id="SVGID_2_">
					<use xlink:href="#SVGID_1_"  style="overflow:visible;"/>
				</clipPath>
			</g>
			<g>
				<defs>
					<polygon id="SVGID_4_" points="149,404.5 150,404.5 149,405.5 					"/>
				</defs>
				<defs>
					<polygon id="SVGID_5_" points="147,402.5 146,402.5 147,401.5 					"/>
				</defs>
				<clipPath id="SVGID_6_">
					<use xlink:href="#SVGID_4_"  style="overflow:visible;"/>
				</clipPath>
				<clipPath id="SVGID_7_" class="st7">
					<use xlink:href="#SVGID_5_"  style="overflow:visible;"/>
				</clipPath>
				<rect x="156.6" y="411.5" class="st8" width="55.2" height="56"/>
			</g>
		</g>
		<circle class="st9" cx="183.9" cy="439.5" r="23"/>
		<path class="st10" d="M193.3,442c4,0,7.2-2.9,7.2-6.4c0-1.8,0.4-3.5-0.9-4.7c-1.3-1.2-4.3-1.7-6.3-1.7c-2.4,0-5.1,0.1-6.5,1.7
			c-0.9,1.1-0.7,3.3-0.7,4.7C186.1,439.2,189.3,442,193.3,442z"/>
		<path class="st10" d="M173.7,442c4,0,7.2-2.9,7.2-6.4c0-1.8,0.4-3.5-0.9-4.7c-1.3-1.2-4.3-1.7-6.3-1.7c-2.4,0-5.1,0.1-6.5,1.7
			c-0.9,1.1-0.7,3.3-0.7,4.7C166.5,439.2,169.7,442,173.7,442z"/>
	</g>
	<g id="line">
		<circle class="st12" cx="183.9" cy="439.5" r="23"/>
		<path class="st12" d="M193.7,448.3c-6.6,3.5-14,3.7-19.6,0"/>
		<path class="st12" d="M166.9,433.9c0,0-1,8.6,6.9,7.9c2.6-0.2,7.8-0.7,7.9-8.3c0-0.7,0-1.6-0.8-2.6c-1.1-1.4-3.6-2-9.9-1.4
			C170.8,429.5,167.4,429.4,166.9,433.9z"/>
		<polyline class="st12" points="166.9,433.4 166.5,430 170.3,429.5 		"/>
		<path class="st12" d="M200.7,433.9c0,0,1,8.6-6.9,7.9c-2.6-0.2-7.8-0.7-7.9-8.3c0-0.7,0-1.6,0.8-2.6c1.1-1.4,3.6-2,9.9-1.4
			C196.7,429.5,200.2,429.4,200.7,433.9z"/>
		<path class="st12" d="M179.5,429.9c0,0,4.1,2.5,8.7,0"/>
		<path class="st12" d="M181.5,434.8c0,0,2.2-3.8,4.5,0"/>
		<polyline class="st12" points="200.6,433.4 201.1,430 197.2,429.5 		"/>
		<path class="st12" d="M181.9,433.5c0,0,1.8-3.8,3.7,0"/>
	</g>
	<g id="color_1_">
		<circle class="st13" cx="181.2" cy="276.3" r="23"/>
		<circle class="st9" cx="181.2" cy="276.3" r="23"/>
	</g>
	<g id="line_1_">
		<path class="st12" d="M174.1,284.6c2.4-0.7,11.9,0.5,14,2.1"/>
		<path class="st12" d="M167.6,263.6c1.3-0.9,2.8-1.3,4.4-1.1c1.6,0,3.1,0.7,4.2,1.7"/>
		<path class="st12" d="M194.3,267.6c-2.4-1.7-5.4,0-8.2-0.3"/>
		<ellipse id="SVGID_3_" class="st14" cx="189" cy="273.9" rx="2.6" ry="2.6"/>
		<ellipse class="st14" cx="172.1" cy="270.7" rx="2.6" ry="2.6"/>
		<path class="st12" d="M200.9,288.2c2.1-3.5,3.3-7.5,3.4-11.9c0-12.7-10.2-23-22.9-23c-12.7,0-23,10.2-23,22.9
			c0,12.7,10.2,23,22.9,23c5.2,0,10-1.7,13.9-4.6"/>
		<circle class="st12" cx="189.2" cy="271.1" r="9.4"/>
		<path class="st12" d="M199,271.3c0,0,2.2,0.6,1.9,4s-3.6,8-3.6,8s-2,2.4-1.5,4.3c0.7,2.5,4.3,6.4,4.2,8.6"/>
	</g>
	<g id="color_2_">
		<path class="st9" d="M182.5,74.9c-12.6,0-22.8,10.2-22.8,22.8c0,12.6,10.2,22.8,22.8,22.8c12.6,0,22.8-10.2,22.8-22.8
			C205.3,85.1,195.1,74.9,182.5,74.9z"/>
	</g>
	<g id="line_2_">
		<circle class="st15" cx="182.3" cy="97.5" r="23"/>
		<path class="st14" d="M176.6,92.5c0,1.7-1.3,3-3,3c-1.7,0-3-1.3-3-3c0-1.7,1.3-3,3-3C175.3,89.5,176.6,90.8,176.6,92.5"/>
		<path class="st14" d="M194.6,92.5c0,1.7-1.3,3-3,3c-1.7,0-3-1.3-3-3c0-1.7,1.3-3,3-3C193.3,89.5,194.6,90.8,194.6,92.5"/>
		<path class="st12" d="M175.3,107.5c3,0,4.9,0.1,8.4,0c3.2-0.1,6.1-1.7,7.6-4"/>
		<path class="st12" d="M186.3,86.3c0.5-0.2,2.6-1.3,5.1-0.6c2.1,0.6,3.3,2,3.7,2.5"/>
		<path class="st12" d="M168.6,88.2c0.3-0.4,1.8-2.2,4.4-2.7c2.1-0.4,3.8,0.4,4.4,0.7"/>
	</g>
</g>
</svg>
